<svg width="127" height="30" viewBox="0 0 127 30" fill="none" xmlns="http://www.w3.org/2000/svg">
<path d="M24.189 17.4727H19.3092V17.7841V22.6976C19.3092 22.6976 19.2395 24.2893 20.6337 26.0194C21.9931 27.6803 24.0844 27.5419 24.0844 27.5419H27.7443V22.6976H26.2455C26.2455 22.6976 25.5135 22.6976 24.8513 22.1439C24.189 21.5903 24.189 20.656 24.189 20.656V17.8187V17.4727Z" fill="#E94952"/>
<path d="M19.448 1.2793H19.3086V10.8987V17.5423H24.1884V10.8987V3.87445C22.7593 2.76719 21.156 1.90213 19.448 1.2793Z" fill="#306DB6"/>
<path d="M13.1392 6.67773C7.03939 6.67773 2.08984 11.5912 2.08984 17.6466C2.08984 23.702 7.03939 28.6155 13.1392 28.6155C19.239 28.6155 24.1885 23.702 24.1885 17.6466C24.1885 11.5912 19.239 6.67773 13.1392 6.67773ZM13.1392 23.6674C9.79302 23.6674 7.07425 20.9684 7.07425 17.6466C7.07425 14.3248 9.79302 11.6258 13.1392 11.6258C16.4854 11.6258 19.2041 14.3248 19.2041 17.6466C19.2041 20.9684 16.4854 23.6674 13.1392 23.6674Z" fill="#F5C526"/>
<path d="M45.903 20.7953H34.5748C34.8885 22.9752 36.6662 24.3247 38.9318 24.3247C40.5352 24.3247 42.0689 23.5981 42.8008 22.2832C43.6025 22.6638 44.5436 23.0444 45.3802 23.3905C44.1254 25.8818 41.4763 27.0237 38.7924 27.0237C34.7491 27.0237 31.4727 24.0825 31.4727 19.6188C31.4727 15.1552 34.7491 12.2832 38.7924 12.2832C42.8357 12.2832 45.9379 15.1206 45.9379 19.6188C45.903 19.9995 45.903 20.5185 45.903 20.7953ZM42.8357 18.5462C42.522 16.3316 40.9186 15.0514 38.7924 15.0514C36.5965 15.0514 34.8885 16.3662 34.5748 18.5462H42.8357Z" fill="#585959"/>
<path d="M49.25 4.94727H52.387V26.7812H49.25V4.94727Z" fill="#585959"/>
<path d="M70.3015 20.7953H58.9733C59.287 22.9752 61.0646 24.3247 63.3303 24.3247C64.9337 24.3247 66.4673 23.5981 67.1993 22.2832C68.001 22.6638 68.9421 23.0444 69.7786 23.3905C68.5238 25.8818 65.8748 27.0237 63.1909 27.0237C59.1476 27.0237 55.8711 24.0825 55.8711 19.6188C55.8711 15.1552 59.1476 12.2832 63.1909 12.2832C67.2342 12.2832 70.3363 15.1206 70.3363 19.6188C70.3015 19.9995 70.3015 20.5185 70.3015 20.7953ZM67.2342 18.5462C66.9204 16.3316 65.3171 15.0514 63.1909 15.0514C60.9949 15.0514 59.287 16.3662 58.9733 18.5462H67.2342Z" fill="#585959"/>
<path d="M84.6981 24.705C83.8267 26.2275 81.8399 27.058 79.888 27.058C76.0538 27.058 72.7773 24.1514 72.7773 19.6877C72.7773 15.1549 76.0538 12.2829 79.888 12.2829C81.9096 12.2829 83.8267 13.0788 84.6981 14.6012V4.94727H87.8003V26.7812H84.6981V24.705ZM80.2714 15.3625C77.9012 15.3625 75.9841 17.058 75.9841 19.6531C75.9841 22.2483 77.8663 24.0476 80.2714 24.0476C82.6067 24.0476 84.6284 22.4213 84.6284 19.6531C84.6284 16.885 82.3976 15.3625 80.2714 15.3625Z" fill="#585959"/>
<path d="M103.276 24.74C102.335 26.297 100.243 27.0583 98.5004 27.0583C94.6662 27.0583 91.2852 24.1863 91.2852 19.6534C91.2852 15.1552 94.6662 12.2832 98.5004 12.2832C100.208 12.2832 102.3 12.9752 103.276 14.6015V12.5946H106.378V26.7469H103.276V24.74ZM98.8838 24.0479C101.219 24.0479 103.276 22.4562 103.276 19.6534C103.276 16.8507 101.01 15.3628 98.8838 15.3628C96.5136 15.3628 94.5268 17.0583 94.5268 19.6534C94.4919 22.2486 96.4787 24.0479 98.8838 24.0479Z" fill="#585959"/>
<path d="M109.863 19.654C109.863 15.1557 113.244 12.3184 117.288 12.3184C121.331 12.3184 124.747 15.1557 124.747 19.654C124.747 24.1523 121.331 27.0588 117.288 27.0588C113.279 27.0935 109.863 24.1523 109.863 19.654ZM121.61 19.654C121.61 17.0588 119.658 15.3979 117.288 15.3979C114.952 15.3979 113 17.0588 113 19.654C113 22.3184 114.952 24.0485 117.288 24.0485C119.658 24.0485 121.61 22.3184 121.61 19.654Z" fill="#585959"/>
</svg>
